<svg width="189" height="233" viewBox="0 0 189 233" fill="none" xmlns="http://www.w3.org/2000/svg">
    <g clip-path="url(#clip0_174_895)">
        <path
            d="M171.791 130.481C170.945 88.5063 135.533 53.6622 93.5098 54.3391C52.4172 54.1094 17.1501 89.3886 17.5731 130.481L15.6757 128.173C41.2739 133.309 67.4523 135.533 93.5582 136.101C119.664 136.669 146.06 135.63 171.791 130.481ZM171.791 130.481C146.326 137.177 119.821 139.05 93.534 139.401C66.5217 139.522 39.4489 137.624 12.8717 132.415C12.6061 121.174 14.6633 109.999 18.9147 99.5892C30.759 69.9422 61.5664 49.4684 93.4856 50.0364C136.778 49.8551 173.495 87.2373 171.767 130.445L171.791 130.481Z"
            fill="white" />
        <path
            d="M93.5098 59.6204C67.9236 61.808 46.7489 77.4111 34.6749 99.6253C30.7008 106.973 27.6366 114.778 25.5499 122.867C26.1 114.323 28.2396 105.958 31.8588 98.1991C42.3375 74.7643 67.2952 56.8527 93.4977 59.6204H93.5098Z"
            fill="white" />
        <path
            d="M90.2465 60.2612C69.7002 64.7331 52.5139 78.632 42.2528 96.8699C50.3625 77.5322 69.1322 62.3884 90.2465 60.2612Z"
            fill="white" />
        <path
            d="M184.3 129.659C183.962 129.659 183.37 130.239 183.092 130.42C180.282 132.506 177.293 134.338 174.16 135.895C156.116 144.706 135.847 147.716 116.014 149.299C84.2881 150.942 51.6196 150.314 21.0781 140.609C13.5606 137.95 6.05511 134.65 0.0241699 129.393C6.6715 133.78 14.189 136.355 21.7791 138.361C52.4172 145.613 84.3969 145.758 115.736 144.634C135.303 143.558 155.137 141.479 173.616 134.638C176.853 133.403 179.996 131.933 183.019 130.239L183.672 129.889C183.889 129.792 184.119 129.586 184.361 129.647L184.3 129.659Z"
            fill="white" />
        <path
            d="M99.7825 49.0934C94.948 54.1212 85.7264 51.1963 85.1462 43.8964C85.0524 42.6312 85.2325 41.3606 85.6743 40.1714C86.1161 38.9821 86.8091 37.9021 87.7062 37.005C88.6033 36.108 89.6833 35.4149 90.8725 34.9731C92.0618 34.5313 93.3323 34.3512 94.5975 34.4451C101.849 35.0131 104.822 44.259 99.7825 49.0934ZM99.7825 49.0934C100.403 48.54 100.904 47.8659 101.256 47.1123C101.607 46.3586 101.801 45.5412 101.826 44.7101C101.85 43.8789 101.705 43.0514 101.399 42.2782C101.093 41.5051 100.633 40.8024 100.046 40.2132C99.4596 39.624 98.7588 39.1606 97.9869 38.8514C97.215 38.5422 96.3882 38.3937 95.5569 38.4149C94.7257 38.4361 93.9075 38.6266 93.1523 38.9747C92.3972 39.3229 91.721 39.8214 91.1651 40.4398C90.5819 41.0038 90.1167 41.6782 89.7967 42.4238C89.4767 43.1694 89.3083 43.9712 89.3012 44.7825C89.2941 45.5939 89.4486 46.3985 89.7555 47.1495C90.0625 47.9006 90.5158 48.583 91.0891 49.1571C91.6625 49.7312 92.3443 50.1855 93.0949 50.4936C93.8455 50.8016 94.6499 50.9571 95.4612 50.9512C96.2726 50.9453 97.0746 50.7779 97.8206 50.459C98.5667 50.14 99.2418 49.6758 99.8066 49.0934H99.7825Z"
            fill="white" />
        <path
            d="M128.849 0C117.597 15.0471 138.131 24.7764 138.035 39.1709C137.841 42.1331 136.801 44.9773 135.037 47.3652C130.203 54.4839 124.087 60.5511 119.446 67.7302C113.669 76.3234 116.316 83.0312 124.353 88.6633C131.931 93.6669 138.144 101.958 133.273 111.168C131.905 113.82 130.013 116.167 127.713 118.069L126.964 116.667C134.651 113.887 150.157 107.433 148.949 97.4861C148.525 94.0778 145.323 91.6848 145.129 88.1798C144.827 85.7626 147.305 83.9497 149.166 83.1883C154.182 81.0733 159.343 79.8284 163.959 76.9761C168.541 74.2731 172.3 70.3753 174.837 65.6998C178.596 58.7261 180.819 50.556 179.031 42.6638C178.547 40.0532 177.568 37.4426 177.822 34.6628C178.535 29.0186 184.349 26.0817 188.7 23.3744C185.328 25.4895 181.762 27.6771 179.478 31.0128C177 34.554 178.777 38.7116 179.635 42.5429C180.271 45.1964 180.524 47.9275 180.384 50.6527C179.526 61.4213 174.1 72.3471 164.672 78.0155C160.116 80.9403 154.714 82.4027 149.831 84.4573C147.414 85.4967 145.806 87.1284 147.063 89.8357C148.115 92.3133 150.133 94.4284 150.483 97.2565C152.018 109.463 132.693 116.51 123.435 119.628C136.343 109.959 137.249 99.3111 123.544 89.8719C118.89 86.5482 114.104 81.4117 115.083 75.1511C115.978 69.1927 120.002 64.5758 123.544 60.0798C127.085 55.5838 130.989 51.4141 134.252 46.7851C135.913 44.556 136.899 41.8962 137.092 39.1226C137.213 25.0423 117.259 14.8658 128.837 0H128.849Z"
            fill="white" />
        <path
            d="M154.943 9.68115C156.611 12.4972 158.569 15.422 161.591 16.9328L165.615 18.9874L164.6 19.5796C161.82 21.0783 158.799 22.9637 157.264 25.816L154.943 30.0945C154.496 29.2606 153.094 26.6983 152.623 25.816C151.1 22.9758 148.054 21.0662 145.286 19.5917L144.259 18.9874L148.284 16.9328C151.305 15.4099 153.275 12.4972 154.943 9.68115ZM154.943 9.68115C153.553 12.9202 151.934 15.978 148.828 17.8513C147.837 18.4677 146.87 19.0599 145.891 19.5917V18.4677C149.057 19.9422 152.236 21.8518 153.988 25.0063L155.656 27.9915H154.23L155.898 25.0063C157.651 21.8518 160.829 19.9422 163.996 18.4677V19.5796C163.017 18.9995 162.05 18.4677 161.059 17.8513C157.953 15.978 156.333 12.9202 154.943 9.68115Z"
            fill="white" />
        <path
            d="M163.681 40.2344C164.548 41.7426 165.799 42.9938 167.307 43.8602L169.918 45.0688L167.404 46.6037C166.068 47.5688 165.032 48.8931 164.419 50.4229L163.706 51.7524L162.992 50.4229C162.367 48.8966 161.329 47.5742 159.995 46.6037C159.403 46.2291 158.073 45.3951 157.481 45.0688L160.092 43.8602C161.599 42.9924 162.85 41.7415 163.718 40.2344H163.681ZM163.681 40.2344C163.351 41.419 162.77 42.5187 161.978 43.4592C161.185 44.3996 160.2 45.1588 159.089 45.6852V44.5612C160.9 45.2198 162.451 46.4446 163.512 48.0541L164.394 49.6252H162.968L163.851 48.0541C164.901 46.4428 166.451 45.2202 168.262 44.5733V45.6368C167.158 45.1136 166.179 44.3611 165.389 43.4295C164.599 42.4979 164.017 41.4087 163.681 40.2344Z"
            fill="white" />
    </g>
    <path
        d="M22.25 219.2C22.15 219.7 21.85 220.133 21.35 220.5C20.8833 220.833 20.2167 221 19.35 221C18.6167 221 18.0333 220.8 17.6 220.4C17.2 220 16.9833 219.583 16.95 219.15C17.15 217.75 17.25 215.65 17.25 212.85C17.25 211.183 17.15 208.617 16.95 205.15C16.7167 201.883 16.6 198.983 16.6 196.45C16.6 195.083 16.6667 193.683 16.8 192.25C16.8 191.783 17.0667 191.283 17.6 190.75C18.1667 190.217 18.9333 189.883 19.9 189.75C23.0667 189.417 26.95 189.25 31.55 189.25H33.15C34.35 189.25 35.5167 189.467 36.65 189.9C37.8167 190.333 38.4 191.083 38.4 192.15C38.4 192.85 38.2333 193.4 37.9 193.8C37.5667 194.2 36.95 194.4 36.05 194.4C35.6167 194.4 35.1167 194.367 34.55 194.3C33.9833 194.233 33.5833 194.183 33.35 194.15C32.0833 193.95 31.1 193.85 30.4 193.85C26.5333 193.85 23.6167 194.117 21.65 194.65C21.65 195.75 21.6833 197.533 21.75 200L21.8 203.2C23.5333 203.2 25.0833 203.133 26.45 203C27.8167 202.833 28.6 202.733 28.8 202.7C30.5333 202.5 31.6833 202.4 32.25 202.4C33.05 202.4 33.7167 202.583 34.25 202.95C34.8167 203.283 35.1 203.817 35.1 204.55C35.1 206.217 33.9333 207.05 31.6 207.05C31.0333 207.05 30.5333 207.067 30.1 207.1C29.6667 207.133 29.3 207.167 29 207.2C27.8 207.333 26.85 207.4 26.15 207.4C24.6167 207.4 23.3167 207.45 22.25 207.55C22.25 208.783 22.3 210.083 22.4 211.45C22.4 211.883 22.4167 212.55 22.45 213.45C22.5167 214.35 22.55 215.167 22.55 215.9C22.55 216.533 22.5333 217.117 22.5 217.65C22.4667 218.183 22.3833 218.7 22.25 219.2ZM59.4734 204.95C59.7401 205.417 59.9568 206.1 60.1234 207C60.2901 207.867 60.3734 208.65 60.3734 209.35C60.3734 210.65 60.0901 212.5 59.5234 214.9C57.2234 219.1 53.8234 221.2 49.3234 221.2C47.6568 221.2 45.9568 220.65 44.2234 219.55C42.4901 218.45 41.2901 217.183 40.6234 215.75C39.7234 212.883 39.2734 211.067 39.2734 210.3C39.2734 208.967 39.5568 207.55 40.1234 206.05C40.7234 204.55 41.4734 203.25 42.3734 202.15C42.9401 201.383 43.9568 200.733 45.4234 200.2C46.8901 199.633 48.2234 199.35 49.4234 199.35C51.7568 199.35 53.7401 199.8 55.3734 200.7C57.0068 201.567 58.3734 202.983 59.4734 204.95ZM55.1234 213C55.2901 212.567 55.3734 211.45 55.3734 209.65C55.3734 208.683 55.1901 207.733 54.8234 206.8C54.4901 205.867 53.9901 205.067 53.3234 204.4C53.2568 204.333 53.0734 204.233 52.7734 204.1C52.4734 203.933 52.0568 203.783 51.5234 203.65C51.0234 203.483 50.4401 203.4 49.7734 203.4C47.9068 203.4 46.5401 204.15 45.6734 205.65C44.8068 207.15 44.3734 208.85 44.3734 210.75C44.3734 211.083 44.4568 211.717 44.6234 212.65C44.8234 213.583 44.9901 214.167 45.1234 214.4C45.2234 214.633 45.4734 214.967 45.8734 215.4C46.3068 215.8 46.8234 216.167 47.4234 216.5C48.0568 216.8 48.7068 216.95 49.3734 216.95C50.8734 216.95 52.0734 216.6 52.9734 215.9C53.8734 215.167 54.5901 214.2 55.1234 213ZM84.9594 204.95C85.226 205.417 85.4427 206.1 85.6094 207C85.776 207.867 85.8594 208.65 85.8594 209.35C85.8594 210.25 85.7594 211.25 85.5594 212.35C85.3594 213.45 85.176 214.3 85.0094 214.9C82.7094 219.1 79.3094 221.2 74.8094 221.2C73.1427 221.2 71.4427 220.65 69.7094 219.55C67.976 218.45 66.776 217.183 66.1094 215.75C65.2094 212.917 64.7594 211.1 64.7594 210.3C64.7594 208.967 65.0427 207.55 65.6094 206.05C66.2094 204.55 66.9594 203.25 67.8594 202.15C68.4594 201.383 69.4927 200.733 70.9594 200.2C72.426 199.633 73.7594 199.35 74.9594 199.35C77.2927 199.35 79.2594 199.8 80.8594 200.7C82.4927 201.567 83.8594 202.983 84.9594 204.95ZM80.6094 213C80.776 212.667 80.8594 211.55 80.8594 209.65C80.8594 208.683 80.676 207.733 80.3094 206.8C79.976 205.867 79.476 205.067 78.8094 204.4C78.7427 204.333 78.5594 204.233 78.2594 204.1C77.9594 203.933 77.5427 203.783 77.0094 203.65C76.5094 203.483 75.926 203.4 75.2594 203.4C73.3927 203.4 72.026 204.15 71.1594 205.65C70.2927 207.15 69.8594 208.85 69.8594 210.75C69.8594 211.05 69.9594 211.667 70.1594 212.6C70.3594 213.533 70.5094 214.133 70.6094 214.4C70.876 214.867 71.4094 215.417 72.2094 216.05C73.0427 216.65 73.9427 216.95 74.9094 216.95C76.4094 216.95 77.5927 216.6 78.4594 215.9C79.3594 215.167 80.076 214.2 80.6094 213ZM110.6 189.7C110.6 190.033 110.517 190.95 110.35 192.45C109.983 196.117 109.8 199.833 109.8 203.6C109.8 206.9 109.85 209.417 109.95 211.15C110.05 212.883 110.3 214.217 110.7 215.15C111.1 216.05 111.717 216.5 112.55 216.5C114.15 216.5 114.95 217.033 114.95 218.1C114.95 218.8 114.6 219.4 113.9 219.9C113.2 220.367 112.433 220.6 111.6 220.6C110.6 220.6 109.667 220.367 108.8 219.9C107.933 219.433 107.25 218.717 106.75 217.75C106.05 218.783 105.033 219.617 103.7 220.25C102.4 220.85 101.133 221.15 99.9 221.15C98 221.15 96.3167 220.75 94.85 219.95C93.3833 219.15 92.25 218.067 91.45 216.7C90.65 215.3 90.25 213.767 90.25 212.1C90.25 210.5 90.4333 208.967 90.8 207.5C91.2 206 91.7333 204.767 92.4 203.8C93.3 202.533 94.5 201.533 96 200.8C97.5333 200.033 99.0333 199.65 100.5 199.65C101.4 199.65 102.25 199.833 103.05 200.2C103.85 200.533 104.55 200.95 105.15 201.45C105.15 199.217 105.133 197.817 105.1 197.25V196.2C105.1 193.1 105.3 190.833 105.7 189.4C106.067 188 106.95 187.3 108.35 187.3C109.117 187.3 109.683 187.467 110.05 187.8C110.417 188.133 110.6 188.767 110.6 189.7ZM95.2 212C95.2 213.533 95.6333 214.767 96.5 215.7C97.4 216.633 98.4667 217.1 99.7 217.1C101.467 217.1 102.767 216.55 103.6 215.45C104.467 214.35 104.9 212.933 104.9 211.2L104.85 206.25C103.55 204.817 102.2 204.1 100.8 204.1C99.8333 204.1 98.9167 204.35 98.05 204.85C97.2167 205.317 96.55 206.033 96.05 207C95.4833 208.1 95.2 209.767 95.2 212Z"
        fill="white" />
    <path
        d="M120.688 188.9C121.855 189 122.855 189.317 123.688 189.85C124.555 190.35 124.988 191.117 124.988 192.15C124.988 192.917 124.638 193.533 123.938 194C123.238 194.433 122.371 194.65 121.338 194.65C120.371 194.65 119.705 194.4 119.338 193.9C118.971 193.4 118.788 192.883 118.788 192.35C118.788 191.383 118.905 190.567 119.138 189.9C119.371 189.2 119.888 188.867 120.688 188.9ZM119.688 209.55V208.1C119.688 206.433 119.605 204.917 119.438 203.55C119.305 202.15 119.221 201.283 119.188 200.95C119.221 200.583 119.471 200.233 119.938 199.9C120.405 199.567 120.821 199.4 121.188 199.4C121.821 199.4 122.455 199.533 123.088 199.8C123.755 200.033 124.171 200.333 124.338 200.7C124.505 201.933 124.588 202.883 124.588 203.55C124.588 205.017 124.655 207.417 124.788 210.75L124.838 212.7L124.938 214.6C124.971 215.133 125.005 215.767 125.038 216.5C125.071 217.233 125.088 218.067 125.088 219C125.088 219.633 124.771 220.167 124.138 220.6C123.538 221.033 122.905 221.25 122.238 221.25C121.271 221.25 120.588 221.033 120.188 220.6C119.821 220.167 119.638 219.483 119.638 218.55L119.688 209.55ZM130.533 210.4C130.533 209.133 130.767 207.867 131.233 206.6C131.7 205.3 132.317 204.117 133.083 203.05C133.85 201.983 135.067 201.117 136.733 200.45C138.4 199.75 139.883 199.4 141.183 199.4C142.517 199.4 143.867 199.583 145.233 199.95C146.633 200.317 147.6 200.883 148.133 201.65C149.367 203.383 149.983 205.083 149.983 206.75C149.983 207.65 149.783 208.417 149.383 209.05C149.017 209.683 148.483 210.367 147.783 211.1C147.217 211.7 146.317 212.1 145.083 212.3C143.883 212.5 142.683 212.6 141.483 212.6C140.717 212.6 139.783 212.533 138.683 212.4C137.583 212.233 136.517 212.033 135.483 211.8C135.55 212.467 135.717 213.117 135.983 213.75C136.25 214.383 136.567 214.867 136.933 215.2C137.6 215.833 138.283 216.233 138.983 216.4C139.717 216.567 140.65 216.65 141.783 216.65C142.983 216.65 144.1 216.45 145.133 216.05C145.967 215.75 146.65 215.6 147.183 215.6C147.817 215.6 148.3 215.8 148.633 216.2C148.967 216.567 149.133 217.05 149.133 217.65C149.133 218.483 148.65 219.167 147.683 219.7C146.717 220.233 145.6 220.633 144.333 220.9C143.1 221.133 142.1 221.25 141.333 221.25C139.767 221.25 138.25 220.967 136.783 220.4C135.317 219.833 134.1 219.033 133.133 218C132.333 217.067 131.7 215.95 131.233 214.65C130.767 213.317 130.533 211.9 130.533 210.4ZM141.433 203.65C140.7 203.65 139.967 203.8 139.233 204.1C138.5 204.367 137.9 204.75 137.433 205.25C136.833 205.883 136.417 206.4 136.183 206.8C135.983 207.167 135.85 207.683 135.783 208.35C136.617 208.617 138.35 208.75 140.983 208.75C142.417 208.75 143.517 208.533 144.283 208.1C145.083 207.667 145.483 207.1 145.483 206.4C145.483 205.7 145.05 205.067 144.183 204.5C143.317 203.933 142.4 203.65 141.433 203.65ZM168.761 210.2C169.028 210.367 169.545 210.683 170.311 211.15C171.111 211.583 171.645 212.1 171.911 212.7C172.178 213.3 172.311 214.133 172.311 215.2C172.311 216.4 171.961 217.467 171.261 218.4C170.561 219.3 169.661 220 168.561 220.5C167.795 220.833 166.961 221.033 166.061 221.1C165.195 221.167 164.145 221.2 162.911 221.2C162.245 221.2 161.378 221.1 160.311 220.9C159.278 220.7 158.561 220.517 158.161 220.35C157.095 219.75 156.195 219.05 155.461 218.25C154.728 217.45 154.361 216.633 154.361 215.8C154.361 215.133 154.578 214.6 155.011 214.2C155.445 213.8 156.011 213.6 156.711 213.6C157.078 213.6 157.428 213.7 157.761 213.9C158.128 214.067 158.378 214.267 158.511 214.5C158.878 215.367 159.495 216.017 160.361 216.45C161.228 216.883 162.111 217.1 163.011 217.1C166.178 217.1 167.761 216.533 167.761 215.4C167.761 215.1 167.678 214.867 167.511 214.7C167.378 214.5 167.178 214.3 166.911 214.1C166.478 213.8 165.861 213.483 165.061 213.15C164.295 212.817 163.611 212.567 163.011 212.4C161.645 212.1 160.311 211.65 159.011 211.05C157.811 210.45 156.828 209.667 156.061 208.7C155.295 207.7 154.911 206.483 154.911 205.05C154.911 204.183 155.228 203.333 155.861 202.5C156.528 201.633 157.295 200.983 158.161 200.55C158.761 200.317 159.745 200.067 161.111 199.8C162.478 199.533 163.411 199.4 163.911 199.4C164.678 199.4 165.511 199.483 166.411 199.65C167.311 199.783 167.995 200.017 168.461 200.35C169.361 200.883 170.095 201.45 170.661 202.05C171.228 202.617 171.511 203.267 171.511 204C171.511 204.367 171.428 204.767 171.261 205.2C171.095 205.6 170.895 205.85 170.661 205.95C170.161 206.183 169.578 206.3 168.911 206.3C168.611 206.3 168.361 206.217 168.161 206.05C167.995 205.883 167.761 205.617 167.461 205.25C167.095 204.683 166.745 204.35 166.411 204.25C166.011 204.15 165.428 204.033 164.661 203.9C163.895 203.733 163.378 203.65 163.111 203.65C162.278 203.65 161.478 203.817 160.711 204.15C159.978 204.483 159.611 204.933 159.611 205.5C159.611 206.167 160.161 206.733 161.261 207.2C161.961 207.533 162.728 207.817 163.561 208.05C164.428 208.283 164.961 208.433 165.161 208.5C165.628 208.6 166.228 208.833 166.961 209.2C167.728 209.567 168.328 209.9 168.761 210.2Z"
        fill="#2B964F" />
    <defs>
        <clipPath id="clip0_174_895">
            <rect width="188.651" height="150" fill="white" />
        </clipPath>
    </defs>
</svg>