<svg width="177" height="40" viewBox="0 0 177 40" fill="none" xmlns="http://www.w3.org/2000/svg">
    <path
        d="M1.064 33.504C1.544 32.448 2.12 31.088 2.792 29.424C3.464 27.76 4.168 25.968 4.904 24.048C5.64 22.096 6.392 20.112 7.16 18.096C7.928 16.048 8.648 14.112 9.32 12.288C9.992 10.464 10.568 8.832 11.048 7.392C11.56 5.952 11.928 4.848 12.152 4.08C10.136 4.912 8.408 6.176 6.968 7.872C5.528 9.568 4.44 11.696 3.704 14.256C2.968 14 2.296 13.552 1.688 12.912C1.08 12.24 0.68 11.408 0.488 10.416C0.808 8.944 1.4 7.6 2.264 6.384C3.16 5.168 4.28 4.128 5.624 3.264C6.968 2.4 8.52 1.744 10.28 1.296C12.04 0.815998 13.928 0.575998 15.944 0.575998C18.504 0.575998 20.856 0.959998 23 1.728C25.144 2.464 26.984 3.504 28.52 4.848C30.056 6.192 31.256 7.808 32.12 9.696C32.984 11.584 33.416 13.68 33.416 15.984C33.416 19.12 32.84 22.112 31.688 24.96C30.536 27.808 28.968 30.32 26.984 32.496C25.032 34.672 22.76 36.4 20.168 37.68C17.576 38.992 14.856 39.648 12.008 39.648C9.384 39.648 7.128 39.12 5.24 38.064C3.384 37.04 1.992 35.52 1.064 33.504ZM18.008 2.976C16.408 2.976 14.888 3.2 13.448 3.648C14.856 4.16 16.024 4.704 16.952 5.28C17.88 5.824 18.52 6.256 18.872 6.576C18.616 6.928 18.232 7.552 17.72 8.448C17.24 9.344 16.664 10.432 15.992 11.712C15.352 12.992 14.664 14.4 13.928 15.936C13.192 17.44 12.472 18.992 11.768 20.592C9.944 24.656 8.616 27.856 7.784 30.192C6.984 32.528 6.584 34.144 6.584 35.04C7.032 35.2 7.576 35.312 8.216 35.376C8.856 35.44 9.544 35.472 10.28 35.472C12.872 35.472 15.32 34.88 17.624 33.696C19.96 32.48 21.992 30.864 23.72 28.848C25.48 26.832 26.856 24.496 27.848 21.84C28.872 19.152 29.384 16.336 29.384 13.392C29.384 10.096 28.36 7.536 26.312 5.712C24.264 3.888 21.496 2.976 18.008 2.976Z"
        fill="#D32F2F" />
    <path
        d="M32.9124 35.328C32.9124 34.816 33.3604 34 34.2564 32.88C35.1524 31.728 36.3364 30.432 37.8084 28.992C39.3124 27.52 41.0244 25.984 42.9444 24.384C44.8964 22.752 46.9124 21.184 48.9924 19.68C47.6484 19.392 46.5764 19.184 45.7764 19.056C45.0084 18.928 44.3844 18.864 43.9044 18.864C42.9764 18.864 42.1444 18.992 41.4084 19.248C40.6724 19.504 39.9524 19.92 39.2484 20.496C37.7764 19.216 37.0404 17.744 37.0404 16.08C37.0404 15.568 37.0564 15.264 37.0884 15.168C37.6324 14.624 38.2724 14.208 39.0084 13.92C39.7764 13.632 40.5764 13.488 41.4084 13.488C42.3044 13.488 43.2164 13.632 44.1444 13.92C45.0724 14.208 45.9844 14.528 46.8804 14.88C47.7764 15.2 48.6084 15.504 49.3764 15.792C50.1764 16.08 50.8804 16.224 51.4884 16.224C51.8404 16.224 52.2244 16.176 52.6404 16.08C53.0884 15.984 53.4564 15.856 53.7444 15.696C54.0324 15.92 54.2884 16.368 54.5124 17.04C54.7684 17.712 54.8964 18.368 54.8964 19.008C53.9044 19.392 52.7044 20.064 51.2964 21.024C49.9204 21.984 48.5124 23.088 47.0724 24.336C45.6324 25.584 44.2244 26.912 42.8484 28.32C41.5044 29.728 40.3844 31.056 39.4884 32.304C40.1604 32.592 41.0724 32.736 42.2244 32.736C42.9604 32.736 43.7124 32.672 44.4804 32.544C45.2484 32.416 45.9844 32.24 46.6884 32.016C47.4244 31.792 48.0964 31.536 48.7044 31.248C49.3124 30.928 49.8244 30.592 50.2404 30.24C51.7444 31.2 52.4964 32.608 52.4964 34.464C52.4964 34.72 52.4804 34.928 52.4484 35.088C52.4484 35.248 52.4324 35.44 52.4004 35.664C50.9284 36.592 49.3284 37.056 47.6004 37.056C46.7364 37.056 45.8724 36.96 45.0084 36.768C44.1444 36.608 43.2964 36.432 42.4644 36.24C41.6644 36.048 40.8964 35.872 40.1604 35.712C39.4564 35.52 38.8004 35.424 38.1924 35.424C36.6564 35.424 35.4084 36.144 34.4484 37.584C34.0324 37.424 33.6804 37.136 33.3924 36.72C33.1364 36.304 32.9764 35.84 32.9124 35.328Z"
        fill="#02C543" />
    <path
        d="M73.8545 27.072C72.8625 27.072 72.0625 26.8 71.4545 26.256C70.8785 25.68 70.5905 24.896 70.5905 23.904C70.5905 23.744 70.6225 23.504 70.6865 23.184C70.7505 22.864 70.8145 22.624 70.8785 22.464C71.4225 22.56 71.9345 22.624 72.4145 22.656C72.8945 22.656 73.5185 22.656 74.2865 22.656C75.9185 22.656 77.4385 22.608 78.8465 22.512C80.2865 22.416 81.5825 22.304 82.7345 22.176C83.8865 22.048 84.8785 21.936 85.7105 21.84C86.5425 21.744 87.1825 21.696 87.6305 21.696C88.2385 21.696 88.7665 22.064 89.2145 22.8C89.6945 23.536 90.0465 24.592 90.2705 25.968C89.4705 25.872 88.8145 25.808 88.3025 25.776C87.7905 25.744 87.3425 25.728 86.9585 25.728C85.5825 25.728 84.3025 25.808 83.1185 25.968C81.9345 26.096 80.8145 26.24 79.7585 26.4C78.7025 26.56 77.6945 26.72 76.7345 26.88C75.7745 27.008 74.8145 27.072 73.8545 27.072ZM109.886 39.648C108.062 39.104 106.83 38.576 106.19 38.064C105.55 37.584 105.23 36.912 105.23 36.048C105.23 35.088 105.454 33.744 105.902 32.016C106.35 30.256 106.926 28.304 107.63 26.16C108.366 24.016 109.198 21.776 110.126 19.44C111.054 17.104 111.998 14.864 112.958 12.72C113.918 10.576 114.846 8.624 115.742 6.864C116.67 5.072 117.486 3.68 118.19 2.688L117.854 0.671997C118.302 0.671997 118.926 0.783998 119.726 1.008C120.526 1.232 121.326 1.504 122.126 1.824C122.958 2.144 123.678 2.48 124.286 2.832C124.926 3.152 125.278 3.424 125.342 3.648C125.182 4.416 125.054 5.584 124.958 7.152C124.862 8.688 124.814 10.336 124.814 12.096C124.814 15.584 124.942 19.008 125.198 22.368C125.486 25.696 126.126 29.088 127.118 32.544C127.63 29.984 128.174 27.44 128.75 24.912C129.358 22.352 129.982 19.92 130.622 17.616C131.262 15.28 131.902 13.12 132.542 11.136C133.182 9.152 133.79 7.424 134.366 5.952C134.974 4.448 135.534 3.28 136.046 2.448C136.558 1.584 137.022 1.12 137.438 1.056C137.79 1.12 138.174 1.264 138.59 1.488C139.006 1.68 139.406 1.92 139.79 2.208C140.174 2.496 140.526 2.816 140.846 3.168C141.166 3.52 141.422 3.872 141.614 4.224C140.59 4.64 139.566 5.616 138.542 7.152C137.55 8.688 136.59 10.56 135.662 12.768C134.766 14.944 133.918 17.312 133.118 19.872C132.35 22.432 131.662 24.96 131.054 27.456C130.478 29.92 130.014 32.208 129.662 34.32C129.342 36.432 129.166 38.128 129.134 39.408C129.134 39.472 129.15 39.52 129.182 39.552C129.086 39.584 128.974 39.6 128.846 39.6C128.75 39.6 128.654 39.6 128.558 39.6C127.086 39.6 125.774 39.408 124.622 39.024C123.502 38.672 122.766 38.16 122.414 37.488C121.742 34.8 121.182 32.208 120.734 29.712C120.286 27.216 119.902 24.72 119.582 22.224C119.294 19.728 119.054 17.216 118.862 14.688C118.702 12.128 118.574 9.456 118.478 6.672C117.87 7.632 117.23 8.896 116.558 10.464C115.886 12 115.23 13.696 114.59 15.552C113.95 17.408 113.326 19.36 112.718 21.408C112.142 23.456 111.63 25.456 111.182 27.408C110.734 29.36 110.382 31.216 110.126 32.976C109.87 34.704 109.742 36.208 109.742 37.488C109.742 38.16 109.742 38.64 109.742 38.928C109.774 39.216 109.822 39.456 109.886 39.648ZM153.575 16.608C153.895 16.608 154.263 16.672 154.679 16.8C155.127 16.896 155.527 17.04 155.879 17.232C156.231 17.392 156.519 17.568 156.743 17.76C156.999 17.952 157.127 18.128 157.127 18.288C156.487 19.632 155.895 20.992 155.351 22.368C154.807 23.712 154.343 25.008 153.959 26.256C153.575 27.504 153.271 28.672 153.047 29.76C152.855 30.848 152.759 31.792 152.759 32.592C152.759 33.488 152.855 34.24 153.047 34.848C153.239 35.424 153.559 35.84 154.007 36.096C153.623 36.352 153.127 36.56 152.519 36.72C151.911 36.88 151.367 36.96 150.887 36.96C149.159 36.96 148.295 35.776 148.295 33.408C148.295 31.584 148.903 29.088 150.119 25.92C149.479 27.392 148.743 28.784 147.911 30.096C147.079 31.376 146.231 32.512 145.367 33.504C144.503 34.496 143.623 35.312 142.727 35.952C141.863 36.56 141.063 36.928 140.327 37.056C139.143 36.992 138.183 36.432 137.447 35.376C136.711 34.288 136.343 32.912 136.343 31.248C136.343 29.456 136.727 27.568 137.495 25.584C138.263 23.6 139.239 21.76 140.423 20.064C141.639 18.368 142.951 16.96 144.359 15.84C145.767 14.688 147.127 14.08 148.439 14.016C148.759 14.112 149.111 14.304 149.495 14.592C149.911 14.88 150.295 15.216 150.647 15.6C151.031 15.984 151.351 16.384 151.607 16.8C151.863 17.184 152.007 17.52 152.039 17.808C150.759 18 149.431 18.624 148.055 19.68C146.711 20.736 145.479 22.016 144.359 23.52C143.271 24.992 142.375 26.576 141.671 28.272C140.967 29.968 140.615 31.552 140.615 33.024C140.615 33.632 140.839 34.016 141.287 34.176C142.215 33.984 143.287 33.2 144.503 31.824C145.719 30.416 147.191 28.256 148.919 25.344C149.239 24.768 149.591 24.128 149.975 23.424C150.391 22.72 150.807 21.984 151.223 21.216C151.639 20.448 152.039 19.68 152.423 18.912C152.839 18.112 153.223 17.344 153.575 16.608ZM161.597 17.616C161.437 17.424 161.293 17.024 161.165 16.416C161.037 15.776 160.973 15.232 160.973 14.784C161.805 14.848 162.605 14.912 163.373 14.976C164.141 15.008 164.845 15.04 165.485 15.072C165.965 14.112 166.477 13.168 167.021 12.24C167.597 11.28 168.141 10.416 168.653 9.648C169.197 8.848 169.693 8.176 170.141 7.632C170.621 7.088 170.989 6.736 171.245 6.576C171.565 6.576 171.965 6.64 172.445 6.768C172.957 6.864 173.469 7.008 173.981 7.2C174.493 7.36 174.957 7.536 175.373 7.728C175.789 7.92 176.077 8.112 176.237 8.304C175.277 9.52 174.445 10.656 173.741 11.712C173.069 12.736 172.333 13.92 171.533 15.264C172.173 15.264 172.813 15.248 173.453 15.216C174.125 15.184 174.797 15.136 175.469 15.072C175.629 15.232 175.757 15.44 175.853 15.696C175.949 15.92 175.997 16.16 175.997 16.416C174.429 16.992 172.525 17.312 170.285 17.376C169.485 18.912 168.765 20.448 168.125 21.984C167.517 23.488 166.989 24.944 166.541 26.352C166.125 27.76 165.789 29.088 165.533 30.336C165.309 31.584 165.197 32.704 165.197 33.696C165.197 35.104 165.725 35.888 166.781 36.048C167.741 35.92 168.653 35.68 169.517 35.328C170.381 34.976 171.149 34.528 171.821 33.984C172.013 34.272 172.125 34.512 172.157 34.704C171.965 34.992 171.629 35.328 171.149 35.712C170.701 36.096 170.205 36.464 169.661 36.816C169.117 37.2 168.589 37.52 168.077 37.776C167.565 38.032 167.181 38.176 166.925 38.208C166.125 38.176 165.325 38 164.525 37.68C163.725 37.36 162.989 36.96 162.317 36.48C161.677 36 161.149 35.472 160.733 34.896C160.317 34.288 160.109 33.696 160.109 33.12C160.109 32.352 160.205 31.392 160.397 30.24C160.621 29.056 160.925 27.776 161.309 26.4C161.693 25.024 162.141 23.584 162.653 22.08C163.165 20.576 163.725 19.088 164.333 17.616H161.597Z"
        fill="white" />
</svg>