<svg width="126" height="28" viewBox="0 0 126 28" fill="none" xmlns="http://www.w3.org/2000/svg">
<path d="M5.4 25.56C5.32 25.96 5.08 26.3067 4.68 26.6C4.30667 26.8667 3.77333 27 3.08 27C2.49333 27 2.02667 26.84 1.68 26.52C1.36 26.2 1.18667 25.8667 1.16 25.52C1.32 24.4 1.4 22.72 1.4 20.48C1.4 19.1467 1.32 17.0933 1.16 14.32C0.973333 11.7067 0.88 9.38667 0.88 7.36C0.88 6.26667 0.933334 5.14667 1.04 4C1.04 3.62666 1.25333 3.22667 1.68 2.8C2.13333 2.37333 2.74667 2.10667 3.52 2C6.05333 1.73333 9.16 1.6 12.84 1.6H14.12C15.08 1.6 16.0133 1.77333 16.92 2.12C17.8533 2.46667 18.32 3.06667 18.32 3.92C18.32 4.48 18.1867 4.92 17.92 5.24C17.6533 5.56 17.16 5.72 16.44 5.72C16.0933 5.72 15.6933 5.69333 15.24 5.64C14.7867 5.58667 14.4667 5.54667 14.28 5.52C13.2667 5.36 12.48 5.28 11.92 5.28C8.82667 5.28 6.49333 5.49333 4.92 5.92C4.92 6.8 4.94667 8.22667 5 10.2L5.04 12.76C6.42667 12.76 7.66667 12.7067 8.76 12.6C9.85333 12.4667 10.48 12.3867 10.64 12.36C12.0267 12.2 12.9467 12.12 13.4 12.12C14.04 12.12 14.5733 12.2667 15 12.56C15.4533 12.8267 15.68 13.2533 15.68 13.84C15.68 15.1733 14.7467 15.84 12.88 15.84C12.4267 15.84 12.0267 15.8533 11.68 15.88C11.3333 15.9067 11.04 15.9333 10.8 15.96C9.84 16.0667 9.08 16.12 8.52 16.12C7.29333 16.12 6.25333 16.16 5.4 16.24C5.4 17.2267 5.44 18.2667 5.52 19.36C5.52 19.7067 5.53333 20.24 5.56 20.96C5.61333 21.68 5.64 22.3333 5.64 22.92C5.64 23.4267 5.62667 23.8933 5.6 24.32C5.57333 24.7467 5.50667 25.16 5.4 25.56ZM35.1788 14.16C35.3921 14.5333 35.5654 15.08 35.6988 15.8C35.8321 16.4933 35.8988 17.12 35.8988 17.68C35.8988 18.72 35.6721 20.2 35.2188 22.12C33.3788 25.48 30.6588 27.16 27.0588 27.16C25.7254 27.16 24.3654 26.72 22.9788 25.84C21.5921 24.96 20.6321 23.9467 20.0988 22.8C19.3788 20.5067 19.0188 19.0533 19.0188 18.44C19.0188 17.3733 19.2454 16.24 19.6988 15.04C20.1788 13.84 20.7788 12.8 21.4988 11.92C21.9521 11.3067 22.7654 10.7867 23.9388 10.36C25.1121 9.90667 26.1788 9.68 27.1388 9.68C29.0054 9.68 30.5921 10.04 31.8988 10.76C33.2054 11.4533 34.2988 12.5867 35.1788 14.16ZM31.6988 20.6C31.8321 20.2533 31.8988 19.36 31.8988 17.92C31.8988 17.1467 31.7521 16.3867 31.4588 15.64C31.1921 14.8933 30.7921 14.2533 30.2588 13.72C30.2054 13.6667 30.0588 13.5867 29.8188 13.48C29.5788 13.3467 29.2454 13.2267 28.8188 13.12C28.4188 12.9867 27.9521 12.92 27.4188 12.92C25.9254 12.92 24.8321 13.52 24.1388 14.72C23.4454 15.92 23.0987 17.28 23.0987 18.8C23.0987 19.0667 23.1654 19.5733 23.2988 20.32C23.4588 21.0667 23.5921 21.5333 23.6988 21.72C23.7788 21.9067 23.9788 22.1733 24.2988 22.52C24.6454 22.84 25.0588 23.1333 25.5388 23.4C26.0454 23.64 26.5654 23.76 27.0988 23.76C28.2988 23.76 29.2588 23.48 29.9788 22.92C30.6988 22.3333 31.2721 21.56 31.6988 20.6ZM55.5675 14.16C55.7808 14.5333 55.9542 15.08 56.0875 15.8C56.2208 16.4933 56.2875 17.12 56.2875 17.68C56.2875 18.4 56.2075 19.2 56.0475 20.08C55.8875 20.96 55.7408 21.64 55.6075 22.12C53.7675 25.48 51.0475 27.16 47.4475 27.16C46.1142 27.16 44.7542 26.72 43.3675 25.84C41.9808 24.96 41.0208 23.9467 40.4875 22.8C39.7675 20.5333 39.4075 19.08 39.4075 18.44C39.4075 17.3733 39.6342 16.24 40.0875 15.04C40.5675 13.84 41.1675 12.8 41.8875 11.92C42.3675 11.3067 43.1942 10.7867 44.3675 10.36C45.5408 9.90667 46.6075 9.68 47.5675 9.68C49.4342 9.68 51.0075 10.04 52.2875 10.76C53.5942 11.4533 54.6875 12.5867 55.5675 14.16ZM52.0875 20.6C52.2208 20.3333 52.2875 19.44 52.2875 17.92C52.2875 17.1467 52.1408 16.3867 51.8475 15.64C51.5808 14.8933 51.1808 14.2533 50.6475 13.72C50.5942 13.6667 50.4475 13.5867 50.2075 13.48C49.9675 13.3467 49.6342 13.2267 49.2075 13.12C48.8075 12.9867 48.3408 12.92 47.8075 12.92C46.3142 12.92 45.2208 13.52 44.5275 14.72C43.8342 15.92 43.4875 17.28 43.4875 18.8C43.4875 19.04 43.5675 19.5333 43.7275 20.28C43.8875 21.0267 44.0075 21.5067 44.0875 21.72C44.3008 22.0933 44.7275 22.5333 45.3675 23.04C46.0342 23.52 46.7542 23.76 47.5275 23.76C48.7275 23.76 49.6742 23.48 50.3675 22.92C51.0875 22.3333 51.6608 21.56 52.0875 20.6ZM76.08 1.96C76.08 2.22666 76.0133 2.96 75.88 4.16C75.5867 7.09333 75.44 10.0667 75.44 13.08C75.44 15.72 75.48 17.7333 75.56 19.12C75.64 20.5067 75.84 21.5733 76.16 22.32C76.48 23.04 76.9733 23.4 77.64 23.4C78.92 23.4 79.56 23.8267 79.56 24.68C79.56 25.24 79.28 25.72 78.72 26.12C78.16 26.4933 77.5467 26.68 76.88 26.68C76.08 26.68 75.3333 26.4933 74.64 26.12C73.9467 25.7467 73.4 25.1733 73 24.4C72.44 25.2267 71.6267 25.8933 70.56 26.4C69.52 26.88 68.5067 27.12 67.52 27.12C66 27.12 64.6533 26.8 63.48 26.16C62.3067 25.52 61.4 24.6533 60.76 23.56C60.12 22.44 59.8 21.2133 59.8 19.88C59.8 18.6 59.9467 17.3733 60.24 16.2C60.56 15 60.9867 14.0133 61.52 13.24C62.24 12.2267 63.2 11.4267 64.4 10.84C65.6267 10.2267 66.8267 9.92 68 9.92C68.72 9.92 69.4 10.0667 70.04 10.36C70.68 10.6267 71.24 10.96 71.72 11.36C71.72 9.57333 71.7067 8.45333 71.68 8V7.16C71.68 4.68 71.84 2.86667 72.16 1.72C72.4533 0.599999 73.16 0.039999 74.28 0.039999C74.8933 0.039999 75.3467 0.173332 75.64 0.439999C75.9333 0.706665 76.08 1.21333 76.08 1.96ZM63.76 19.8C63.76 21.0267 64.1067 22.0133 64.8 22.76C65.52 23.5067 66.3733 23.88 67.36 23.88C68.7733 23.88 69.8133 23.44 70.48 22.56C71.1733 21.68 71.52 20.5467 71.52 19.16L71.48 15.2C70.44 14.0533 69.36 13.48 68.24 13.48C67.4667 13.48 66.7333 13.68 66.04 14.08C65.3733 14.4533 64.84 15.0267 64.44 15.8C63.9867 16.68 63.76 18.0133 63.76 19.8Z" fill="white"/>
<path d="M84.1503 1.32C85.0836 1.4 85.8836 1.65333 86.5503 2.08C87.2436 2.48 87.5903 3.09333 87.5903 3.92C87.5903 4.53333 87.3103 5.02667 86.7503 5.4C86.1903 5.74667 85.497 5.92 84.6703 5.92C83.897 5.92 83.3636 5.72 83.0703 5.32C82.777 4.92 82.6303 4.50667 82.6303 4.08C82.6303 3.30666 82.7236 2.65333 82.9103 2.12C83.097 1.56 83.5103 1.29333 84.1503 1.32ZM83.3503 17.84V16.68C83.3503 15.3467 83.2836 14.1333 83.1503 13.04C83.0436 11.92 82.977 11.2267 82.9503 10.96C82.977 10.6667 83.177 10.3867 83.5503 10.12C83.9236 9.85333 84.257 9.72 84.5503 9.72C85.057 9.72 85.5636 9.82667 86.0703 10.04C86.6036 10.2267 86.937 10.4667 87.0703 10.76C87.2036 11.7467 87.2703 12.5067 87.2703 13.04C87.2703 14.2133 87.3236 16.1333 87.4303 18.8L87.4703 20.36L87.5503 21.88C87.577 22.3067 87.6036 22.8133 87.6303 23.4C87.657 23.9867 87.6703 24.6533 87.6703 25.4C87.6703 25.9067 87.417 26.3333 86.9103 26.68C86.4303 27.0267 85.9236 27.2 85.3903 27.2C84.617 27.2 84.0703 27.0267 83.7503 26.68C83.457 26.3333 83.3103 25.7867 83.3103 25.04L83.3503 17.84ZM92.0266 18.52C92.0266 17.5067 92.2132 16.4933 92.5866 15.48C92.9599 14.44 93.4532 13.4933 94.0666 12.64C94.6799 11.7867 95.6532 11.0933 96.9866 10.56C98.3199 10 99.5066 9.72 100.547 9.72C101.613 9.72 102.693 9.86667 103.787 10.16C104.907 10.4533 105.68 10.9067 106.107 11.52C107.093 12.9067 107.587 14.2667 107.587 15.6C107.587 16.32 107.427 16.9333 107.107 17.44C106.813 17.9467 106.387 18.4933 105.827 19.08C105.373 19.56 104.653 19.88 103.667 20.04C102.707 20.2 101.747 20.28 100.787 20.28C100.173 20.28 99.4266 20.2267 98.5466 20.12C97.6666 19.9867 96.8132 19.8267 95.9866 19.64C96.0399 20.1733 96.1732 20.6933 96.3866 21.2C96.5999 21.7067 96.8532 22.0933 97.1466 22.36C97.6799 22.8667 98.2266 23.1867 98.7866 23.32C99.3732 23.4533 100.12 23.52 101.027 23.52C101.987 23.52 102.88 23.36 103.707 23.04C104.373 22.8 104.92 22.68 105.347 22.68C105.853 22.68 106.24 22.84 106.507 23.16C106.773 23.4533 106.907 23.84 106.907 24.32C106.907 24.9867 106.52 25.5333 105.747 25.96C104.973 26.3867 104.08 26.7067 103.067 26.92C102.08 27.1067 101.28 27.2 100.667 27.2C99.4132 27.2 98.1999 26.9733 97.0266 26.52C95.8532 26.0667 94.8799 25.4267 94.1066 24.6C93.4666 23.8533 92.9599 22.96 92.5866 21.92C92.2132 20.8533 92.0266 19.72 92.0266 18.52ZM100.747 13.12C100.16 13.12 99.5732 13.24 98.9866 13.48C98.3999 13.6933 97.9199 14 97.5466 14.4C97.0666 14.9067 96.7332 15.32 96.5466 15.64C96.3866 15.9333 96.2799 16.3467 96.2266 16.88C96.8932 17.0933 98.2799 17.2 100.387 17.2C101.533 17.2 102.413 17.0267 103.027 16.68C103.667 16.3333 103.987 15.88 103.987 15.32C103.987 14.76 103.64 14.2533 102.947 13.8C102.253 13.3467 101.52 13.12 100.747 13.12ZM122.609 18.36C122.822 18.4933 123.236 18.7467 123.849 19.12C124.489 19.4667 124.916 19.88 125.129 20.36C125.342 20.84 125.449 21.5067 125.449 22.36C125.449 23.32 125.169 24.1733 124.609 24.92C124.049 25.64 123.329 26.2 122.449 26.6C121.836 26.8667 121.169 27.0267 120.449 27.08C119.756 27.1333 118.916 27.16 117.929 27.16C117.396 27.16 116.702 27.08 115.849 26.92C115.022 26.76 114.449 26.6133 114.129 26.48C113.276 26 112.556 25.44 111.969 24.8C111.382 24.16 111.089 23.5067 111.089 22.84C111.089 22.3067 111.262 21.88 111.609 21.56C111.956 21.24 112.409 21.08 112.969 21.08C113.262 21.08 113.542 21.16 113.809 21.32C114.102 21.4533 114.302 21.6133 114.409 21.8C114.702 22.4933 115.196 23.0133 115.889 23.36C116.582 23.7067 117.289 23.88 118.009 23.88C120.542 23.88 121.809 23.4267 121.809 22.52C121.809 22.28 121.742 22.0933 121.609 21.96C121.502 21.8 121.342 21.64 121.129 21.48C120.782 21.24 120.289 20.9867 119.649 20.72C119.036 20.4533 118.489 20.2533 118.009 20.12C116.916 19.88 115.849 19.52 114.809 19.04C113.849 18.56 113.062 17.9333 112.449 17.16C111.836 16.36 111.529 15.3867 111.529 14.24C111.529 13.5467 111.782 12.8667 112.289 12.2C112.822 11.5067 113.436 10.9867 114.129 10.64C114.609 10.4533 115.396 10.2533 116.489 10.04C117.582 9.82667 118.329 9.72 118.729 9.72C119.342 9.72 120.009 9.78667 120.729 9.92C121.449 10.0267 121.996 10.2133 122.369 10.48C123.089 10.9067 123.676 11.36 124.129 11.84C124.582 12.2933 124.809 12.8133 124.809 13.4C124.809 13.6933 124.742 14.0133 124.609 14.36C124.476 14.68 124.316 14.88 124.129 14.96C123.729 15.1467 123.262 15.24 122.729 15.24C122.489 15.24 122.289 15.1733 122.129 15.04C121.996 14.9067 121.809 14.6933 121.569 14.4C121.276 13.9467 120.996 13.68 120.729 13.6C120.409 13.52 119.942 13.4267 119.329 13.32C118.716 13.1867 118.302 13.12 118.089 13.12C117.422 13.12 116.782 13.2533 116.169 13.52C115.582 13.7867 115.289 14.1467 115.289 14.6C115.289 15.1333 115.729 15.5867 116.609 15.96C117.169 16.2267 117.782 16.4533 118.449 16.64C119.142 16.8267 119.569 16.9467 119.729 17C120.102 17.08 120.582 17.2667 121.169 17.56C121.782 17.8533 122.262 18.12 122.609 18.36Z" fill="#2B964F"/>
</svg>
